<svg version="1.1" id="clock" xmlns="http://www.w3.org/2000/svg" xmlns:xlink="http://www.w3.org/1999/xlink" x="0px" y="0px"
    viewBox="50 50 400 500" 
    xml:space="preserve">

<circle id="face" fill="#F4F3ED" cx="244" cy="250" r="134"/>
<circle id="inner" fill="none" stroke="#D1DBDD" stroke-width="12" cx="244" cy="250" r="127"></circle>
<circle id="rim" fill="none" stroke="#B1BBBD" stroke-width="16" cx="244" cy="250" r="140"></circle>

<g id="markings">
   <line fill="none" stroke="#3F3F3F" transform="rotate(6 244 250)" stroke-miterlimit="10" x1="244" y1="139" x2="244" y2="132"/>
   <line fill="none" stroke="#3F3F3F" transform="rotate(12 244 250)" stroke-miterlimit="10" x1="244" y1="139" x2="244" y2="132"/>
   <line fill="none" stroke="#3F3F3F" transform="rotate(18 244 250)" stroke-miterlimit="10" x1="244" y1="139" x2="244" y2="132"/>
   <line fill="none" stroke="#3F3F3F" transform="rotate(24 244 250)" stroke-miterlimit="10" x1="244" y1="139" x2="244" y2="132"/>
   <line fill="none" stroke="#3F3F3F" transform="rotate(36 244 250)" stroke-miterlimit="10" x1="244" y1="139" x2="244" y2="132"/>
   <line fill="none" stroke="#3F3F3F" transform="rotate(42 244 250)" stroke-miterlimit="10" x1="244" y1="139" x2="244" y2="132"/>
   <line fill="none" stroke="#3F3F3F" transform="rotate(48 244 250)" stroke-miterlimit="10" x1="244" y1="139" x2="244" y2="132"/>
   <line fill="none" stroke="#3F3F3F" transform="rotate(54 244 250)" stroke-miterlimit="10" x1="244" y1="139" x2="244" y2="132"/>
   <line fill="none" stroke="#3F3F3F" transform="rotate(66 244 250)" stroke-miterlimit="10" x1="244" y1="139" x2="244" y2="132"/>
   <line fill="none" stroke="#3F3F3F" transform="rotate(72 244 250)" stroke-miterlimit="10" x1="244" y1="139" x2="244" y2="132"/>
   <line fill="none" stroke="#3F3F3F" transform="rotate(78 244 250)" stroke-miterlimit="10" x1="244" y1="139" x2="244" y2="132"/>
   <line fill="none" stroke="#3F3F3F" transform="rotate(84 244 250)" stroke-miterlimit="10" x1="244" y1="139" x2="244" y2="132"/>
   <line fill="none" stroke="#3F3F3F" transform="rotate(96 244 250)" stroke-miterlimit="10" x1="244" y1="139" x2="244" y2="132"/>
   <line fill="none" stroke="#3F3F3F" transform="rotate(102 244 250)" stroke-miterlimit="10" x1="244" y1="139" x2="244" y2="132"/>
   <line fill="none" stroke="#3F3F3F" transform="rotate(108 244 250)" stroke-miterlimit="10" x1="244" y1="139" x2="244" y2="132"/>
   <line fill="none" stroke="#3F3F3F" transform="rotate(114 244 250)" stroke-miterlimit="10" x1="244" y1="139" x2="244" y2="132"/>
   <line fill="none" stroke="#3F3F3F" transform="rotate(126 244 250)" stroke-miterlimit="10" x1="244" y1="139" x2="244" y2="132"/>
   <line fill="none" stroke="#3F3F3F" transform="rotate(132 244 250)" stroke-miterlimit="10" x1="244" y1="139" x2="244" y2="132"/>
   <line fill="none" stroke="#3F3F3F" transform="rotate(138 244 250)" stroke-miterlimit="10" x1="244" y1="139" x2="244" y2="132"/>
   <line fill="none" stroke="#3F3F3F" transform="rotate(144 244 250)" stroke-miterlimit="10" x1="244" y1="139" x2="244" y2="132"/>
   <line fill="none" stroke="#3F3F3F" transform="rotate(156 244 250)" stroke-miterlimit="10" x1="244" y1="139" x2="244" y2="132"/>
   <line fill="none" stroke="#3F3F3F" transform="rotate(162 244 250)" stroke-miterlimit="10" x1="244" y1="139" x2="244" y2="132"/>
   <line fill="none" stroke="#3F3F3F" transform="rotate(168 244 250)" stroke-miterlimit="10" x1="244" y1="139" x2="244" y2="132"/>
   <line fill="none" stroke="#3F3F3F" transform="rotate(174 244 250)" stroke-miterlimit="10" x1="244" y1="139" x2="244" y2="132"/>
   <line fill="none" stroke="#3F3F3F" transform="rotate(186 244 250)" stroke-miterlimit="10" x1="244" y1="139" x2="244" y2="132"/>
   <line fill="none" stroke="#3F3F3F" transform="rotate(192 244 250)" stroke-miterlimit="10" x1="244" y1="139" x2="244" y2="132"/>
   <line fill="none" stroke="#3F3F3F" transform="rotate(198 244 250)" stroke-miterlimit="10" x1="244" y1="139" x2="244" y2="132"/>
   <line fill="none" stroke="#3F3F3F" transform="rotate(204 244 250)" stroke-miterlimit="10" x1="244" y1="139" x2="244" y2="132"/>
   <line fill="none" stroke="#3F3F3F" transform="rotate(216 244 250)" stroke-miterlimit="10" x1="244" y1="139" x2="244" y2="132"/>
   <line fill="none" stroke="#3F3F3F" transform="rotate(222 244 250)" stroke-miterlimit="10" x1="244" y1="139" x2="244" y2="132"/>
   <line fill="none" stroke="#3F3F3F" transform="rotate(228 244 250)" stroke-miterlimit="10" x1="244" y1="139" x2="244" y2="132"/>
   <line fill="none" stroke="#3F3F3F" transform="rotate(234 244 250)" stroke-miterlimit="10" x1="244" y1="139" x2="244" y2="132"/>
   <line fill="none" stroke="#3F3F3F" transform="rotate(246 244 250)" stroke-miterlimit="10" x1="244" y1="139" x2="244" y2="132"/>
   <line fill="none" stroke="#3F3F3F" transform="rotate(252 244 250)" stroke-miterlimit="10" x1="244" y1="139" x2="244" y2="132"/>
   <line fill="none" stroke="#3F3F3F" transform="rotate(258 244 250)" stroke-miterlimit="10" x1="244" y1="139" x2="244" y2="132"/>
   <line fill="none" stroke="#3F3F3F" transform="rotate(264 244 250)" stroke-miterlimit="10" x1="244" y1="139" x2="244" y2="132"/>
   <line fill="none" stroke="#3F3F3F" transform="rotate(276 244 250)" stroke-miterlimit="10" x1="244" y1="139" x2="244" y2="132"/>
   <line fill="none" stroke="#3F3F3F" transform="rotate(282 244 250)" stroke-miterlimit="10" x1="244" y1="139" x2="244" y2="132"/>
   <line fill="none" stroke="#3F3F3F" transform="rotate(288 244 250)" stroke-miterlimit="10" x1="244" y1="139" x2="244" y2="132"/>
   <line fill="none" stroke="#3F3F3F" transform="rotate(294 244 250)" stroke-miterlimit="10" x1="244" y1="139" x2="244" y2="132"/>
   <line fill="none" stroke="#3F3F3F" transform="rotate(306 244 250)" stroke-miterlimit="10" x1="244" y1="139" x2="244" y2="132"/>
   <line fill="none" stroke="#3F3F3F" transform="rotate(312 244 250)" stroke-miterlimit="10" x1="244" y1="139" x2="244" y2="132"/>
   <line fill="none" stroke="#3F3F3F" transform="rotate(318 244 250)" stroke-miterlimit="10" x1="244" y1="139" x2="244" y2="132"/>
   <line fill="none" stroke="#3F3F3F" transform="rotate(324 244 250)" stroke-miterlimit="10" x1="244" y1="139" x2="244" y2="132"/>
   <line fill="none" stroke="#3F3F3F" transform="rotate(336 244 250)" stroke-miterlimit="10" x1="244" y1="139" x2="244" y2="132"/>
   <line fill="none" stroke="#3F3F3F" transform="rotate(342 244 250)" stroke-miterlimit="10" x1="244" y1="139" x2="244" y2="132"/>
   <line fill="none" stroke="#3F3F3F" transform="rotate(348 244 250)" stroke-miterlimit="10" x1="244" y1="139" x2="244" y2="132"/>
   <line fill="none" stroke="#3F3F3F" transform="rotate(354 244 250)" stroke-miterlimit="10" x1="244" y1="139" x2="244" y2="132"/>

   <polygon fill="#3F3F3F" points="246,132 246,137 241,137 241,132"/>
   <polygon fill="#3F3F3F" transform="rotate(30 244 250)" points="246,132 246,137 241,137 241,132"/>
   <polygon fill="#3F3F3F" transform="rotate(60 244 250)" points="246,132 246,137 241,137 241,132"/>
   <polygon fill="#3F3F3F" transform="rotate(90 244 250)" points="246,132 246,137 241,137 241,132"/>
   <polygon fill="#3F3F3F" transform="rotate(120 244 250)" points="246,132 246,137 241,137 241,132"/>
   <polygon fill="#3F3F3F" transform="rotate(150 244 250)" points="246,132 246,137 241,137 241,132"/>
   <polygon fill="#3F3F3F" transform="rotate(180 244 250)" points="246,132 246,137 241,137 241,132"/>
   <polygon fill="#3F3F3F" transform="rotate(210 244 250)" points="246,132 246,137 241,137 241,132"/>
   <polygon fill="#3F3F3F" transform="rotate(240 244 250)" points="246,132 246,137 241,137 241,132"/>
   <polygon fill="#3F3F3F" transform="rotate(270 244 250)" points="246,132 246,137 241,137 241,132"/>
   <polygon fill="#3F3F3F" transform="rotate(300 244 250)" points="246,132 246,137 241,137 241,132"/>
   <polygon fill="#3F3F3F" transform="rotate(330 244 250)" points="246,132 246,137 241,137 241,132"/>

   <text x="282" y="176" fill="#303030" font-family="'Helvetica'" font-size="26">1</text>
   <text x="320" y="210" fill="#303030" font-family="'Helvetica'" font-size="26">2</text>
   <text x="335" y="260" fill="#303030" font-family="'Helvetica'" font-size="26">3</text>
   <text x="320" y="310" fill="#303030" font-family="'Helvetica'" font-size="26">4</text>
   <text x="284" y="345" fill="#303030" font-family="'Helvetica'" font-size="26">5</text>
   <text x="237" y="357" fill="#303030" font-family="'Helvetica'" font-size="26">6</text>
   <text x="189" y="344" fill="#303030" font-family="'Helvetica'" font-size="26">7</text>
   <text x="151" y="309" fill="#303030" font-family="'Helvetica'" font-size="26">8</text>
   <text x="136" y="261" fill="#303030" font-family="'Helvetica'" font-size="26">9</text>
   <text x="149" y="213" fill="#303030" font-family="'Helvetica'" font-size="26">10</text>
   <text x="185" y="180" fill="#303030" font-family="'Helvetica'" font-size="26">11</text>
   <text x="228" y="166" fill="#303030" font-family="'Helvetica'" font-size="26">12</text>

   <text x="272" y="188" fill="#303030" font-family="'Helvetica'" font-size="12">13</text>
   <text x="302" y="218" fill="#303030" font-family="'Helvetica'" font-size="12">14</text>
   <text x="310" y="255" fill="#303030" font-family="'Helvetica'" font-size="12">15</text>
   <text x="303" y="297" fill="#303030" font-family="'Helvetica'" font-size="12">16</text>
   <text x="272" y="320" fill="#303030" font-family="'Helvetica'" font-size="12">17</text>
   <text x="235" y="330" fill="#303030" font-family="'Helvetica'" font-size="12">18</text>
   <text x="198" y="320" fill="#303030" font-family="'Helvetica'" font-size="12">19</text>
   <text x="167" y="294" fill="#303030" font-family="'Helvetica'" font-size="12">20</text>
   <text x="160" y="256" fill="#303030" font-family="'Helvetica'" font-size="12">21</text>
   <text x="178" y="220" fill="#303030" font-family="'Helvetica'" font-size="12">22</text>
   <text x="200" y="194" fill="#303030" font-family="'Helvetica'" font-size="12">23</text>
   <text x="237" y="180" fill="#303030" font-family="'Helvetica'" font-size="12">24</text>
</g>

<text id="description" text-anchor="middle" x="244" y="203" fill="#303030" font-family="'Arial'" font-size="12">TIMEX</text>
<text text-anchor="middle" x="244" y="307" fill="#303030" font-family="'Arial'" font-size="8">INDIGLO</text>

<polygon id="hours" fill="#3A3A3A" points="247,250 241,250 241,180 244,177 247,180"/>
<polygon id="minutes" fill="#3A3A3A" points="247,250 241,250 241,145 244,142 247,145"/>
<circle fill="#3A3A3A" cx="244" cy="250" r="9"/>

<g id="seconds">
   <line fill="none" stroke="#BF4116" stroke-miterlimit="10" x1="244" y1="143" x2="244" y2="250"/>
   <polygon fill="#BF4116" points="244,244 241,287 247,287"/>
   <circle fill="#BF4116" cx="244" cy="250" r="6"/>
   <circle fill="#C4C4C4" cx="244" cy="250" r="2"/>
</g>

</svg>
